<svg xmlns="http://www.w3.org/2000/svg" width="40" height="30" viewBox="0 0 40 30"><g id="gmail" transform="translate(0 -64)"><rect id="Rectangle_2" width="30" height="30" fill="#eceff1" data-name="Rectangle 2" transform="translate(5 64)"/><path id="Path_4" fill="#cfd8dc" d="M256,160.212l15,11.845V148.672Z" data-name="Path 4" transform="translate(-236 -78.057)"/><path id="Path_5" fill="#f44336" d="M36.25,64H35L20,75.845,5,64H3.75A3.751,3.751,0,0,0,0,67.75v22.5A3.751,3.751,0,0,0,3.75,94H5V70.615L20,82.152l15-11.54V94h1.25A3.751,3.751,0,0,0,40,90.25V67.75A3.751,3.751,0,0,0,36.25,64Z" data-name="Path 5" transform="translate(0 0)"/></g></svg>